<svg width="25" height="30" viewBox="0 0 25 30" fill="none" xmlns="http://www.w3.org/2000/svg">
<path id="Vector" d="M23.0556 30L14.3056 19.5C13.6111 20.1667 12.8125 20.6944 11.9097 21.0833C11.0069 21.4722 10.0463 21.6667 9.02778 21.6667C6.50463 21.6667 4.36944 20.6178 2.62222 18.52C0.875 16.4222 0.000925926 13.86 0 10.8333C0 7.80555 0.874074 5.24333 2.62222 3.14667C4.37037 1.05 6.50556 0.00111111 9.02778 0C11.5509 0 13.6861 1.04889 15.4333 3.14667C17.1806 5.24444 18.0546 7.80667 18.0556 10.8333C18.0556 12.0556 17.8935 13.2083 17.5694 14.2917C17.2454 15.375 16.8056 16.3333 16.25 17.1667L25 27.6667L23.0556 30ZM9.02778 18.3333C10.7639 18.3333 12.2398 17.6039 13.4556 16.145C14.6713 14.6861 15.2787 12.9156 15.2778 10.8333C15.2778 8.75 14.6699 6.97889 13.4542 5.52C12.2384 4.06111 10.763 3.33222 9.02778 3.33333C7.29167 3.33333 5.81574 4.06278 4.6 5.52167C3.38426 6.98056 2.77685 8.75111 2.77778 10.8333C2.77778 12.9167 3.38565 14.6878 4.60139 16.1467C5.81713 17.6056 7.29259 18.3344 9.02778 18.3333Z" fill="#50B8E7"/>
</svg>
